<?xml version="1.0" standalone="no"?>
<!DOCTYPE svg PUBLIC "-//W3C//DTD SVG 20010904//EN"
 "http://www.w3.org/TR/2001/REC-SVG-20010904/DTD/svg10.dtd">
<svg version="1.0" xmlns="http://www.w3.org/2000/svg"
 width="260.000000pt" height="260.000000pt" viewBox="0 0 260.000000 260.000000"
 preserveAspectRatio="xMidYMid meet">
<metadata>
Created by potrace 1.11, written by Peter Selinger 2001-2013
</metadata>
<g transform="translate(0.000000,260.000000) scale(0.100000,-0.100000)"
fill="#000000" stroke="none">
<path d="M676 2078 c-57 -43 -56 -34 -56 -696 l0 -609 23 -43 c16 -30 37 -51
67 -67 l43 -23 542 0 542 0 43 23 c30 16 51 37 67 67 l23 43 0 609 c0 665 1
655 -58 697 -30 21 -32 21 -619 21 -585 -1 -588 -1 -617 -22z m1152 -104 c26
-18 29 -60 5 -86 -15 -17 -45 -18 -536 -18 -573 0 -557 -2 -557 61 0 60 -6 59
555 59 446 0 513 -2 533 -16z m-593 -544 l0 -305 -227 -3 c-217 -2 -229 -1
-248 18 -19 19 -20 32 -20 290 0 258 1 271 20 290 19 19 31 20 248 18 l227 -3
0 -305z m595 290 c19 -19 20 -33 20 -290 0 -258 -1 -271 -20 -290 -19 -19 -31
-20 -248 -18 l-227 3 -3 295 c-1 162 0 300 3 307 3 10 58 13 230 13 212 0 226
-1 245 -20z m-869 -759 c48 -49 38 -125 -21 -156 -38 -19 -65 -19 -100 2 -88
52 -52 183 50 183 33 0 48 -6 71 -29z m802 9 c52 -41 44 -136 -14 -165 -103
-54 -201 74 -120 156 37 36 94 40 134 9z"/>
<path d="M662 558 l3 -63 128 -3 127 -3 0 46 0 45 -88 0 c-68 0 -95 4 -125 20
-20 11 -39 20 -42 20 -3 0 -5 -28 -3 -62z"/>
<path d="M1880 599 c-27 -14 -56 -19 -122 -19 l-88 0 0 -45 0 -45 124 0 c69 0
127 3 130 8 9 15 10 116 1 118 -6 1 -26 -7 -45 -17z"/>
</g>
</svg>
