<?xml version="1.0" standalone="no"?>
<!DOCTYPE svg PUBLIC "-//W3C//DTD SVG 20010904//EN"
 "http://www.w3.org/TR/2001/REC-SVG-20010904/DTD/svg10.dtd">
<svg version="1.0" xmlns="http://www.w3.org/2000/svg"
 width="512.000000pt" height="512.000000pt" viewBox="0 0 512.000000 512.000000"
 preserveAspectRatio="xMidYMid meet">
<metadata>
Created by potrace 1.11, written by Peter Selinger 2001-2013
</metadata>
<g transform="translate(0.000000,512.000000) scale(0.100000,-0.100000)"
fill="#000000" stroke="none">
<path d="M1635 3795 c-51 -18 -110 -81 -124 -131 -7 -27 -11 -336 -11 -970 0
-1022 -2 -991 60 -1067 18 -20 53 -49 78 -65 l47 -27 860 0 861 0 49 26 c59
30 119 103 134 165 16 62 15 1869 -1 1931 -14 59 -78 127 -133 142 -28 8 -308
11 -910 11 -724 -1 -877 -3 -910 -15z m1720 -179 c59 -25 75 -97 30 -141 l-24
-25 -811 0 -811 0 -24 25 c-48 47 -25 132 40 148 11 3 368 5 793 6 646 1 778
-1 807 -13z m-907 -378 c9 -9 12 -127 12 -469 0 -252 -3 -464 -6 -473 -5 -14
-45 -16 -346 -16 -361 0 -383 3 -408 49 -6 13 -10 169 -10 435 l0 414 25 31
c14 16 36 32 48 34 12 2 168 5 348 6 241 1 328 -2 337 -11z m933 -26 l29 -32
0 -421 0 -421 -29 -29 -29 -29 -350 0 c-310 0 -351 2 -356 16 -3 9 -6 221 -6
473 0 352 3 460 12 469 10 10 92 12 356 10 l344 -3 29 -33z m-1381 -1154 c55
-38 74 -72 74 -133 0 -61 -19 -95 -74 -132 -67 -46 -166 -22 -210 49 -28 47
-27 125 3 169 45 68 143 90 207 47z m1250 3 c108 -57 108 -215 0 -272 -48 -26
-109 -24 -150 4 -55 37 -74 71 -74 132 0 61 19 95 74 133 41 27 102 29 150 3z"/>
<path d="M1563 1498 c-15 -19 0 -187 18 -199 22 -14 363 -11 377 3 7 7 12 39
12 74 l0 63 -142 3 c-145 3 -176 10 -234 53 -17 12 -23 13 -31 3z"/>
<path d="M3497 1490 c-49 -39 -102 -50 -238 -50 l-129 0 0 -69 c0 -54 4 -70
16 -75 24 -9 357 -7 372 3 19 12 34 182 18 199 -10 10 -17 9 -39 -8z"/>
</g>
</svg>
